<svg id="Layer_1" data-name="Layer 1" xmlns="http://www.w3.org/2000/svg" viewBox="0 0 711.88 907.44"><defs><style>.cls-1{fill:#0b0d0d;}.cls-2{fill:#0c0d0e;}.cls-3{fill:#464444;}.cls-4{fill:#524f4f;}.cls-5{fill:#6a6868;}.cls-6{fill:#702820;}.cls-7{fill:#c6375d;}.cls-8{fill:#9d3e35;}.cls-9{fill:#9c3e35;}.cls-10{fill:#c87555;}.cls-11{fill:#adbcc2;}.cls-12{fill:#c77555;}.cls-13{fill:#6d6e71;}.cls-14{fill:#9a4237;}</style></defs><path class="cls-1" d="M427.08,46.94H552a2.72,2.72,0,0,0-.2,1.49c0,4.78,0,9.57,0,14.36,0,1.9,0,1.92,1.89,1.92q10.34,0,20.68,0h28.73c2.34,0,2.05-.19,2.05,2.14,0,4.42,0,8.85,0,13.28,0,2.88-.4,2.51,2.55,2.51h49c1.9,0,1.91,0,1.92,1.86V98.23c0,2.37-.13,2.14,2.06,2.14,4.72,0,9.44,0,14.15,0,1.64,0,1.66,0,1.67,1.66q0,7.18,0,14.36c0,1.69-.1,1.64,1.67,1.63,4.64,0,9.29,0,13.93,0,2.16,0,2.17,0,2.17,2.09,0,4.64,0,9.29,0,13.93,0,2-.16,1.92,1.85,1.92h13.5c2.53,0,2.26-.15,2.26,2.18,0,4.5,0,9,0,13.5,0,2-.32,2,2,2H728c1.88,0,1.9,0,1.91,1.9,0,4.71,0,9.43,0,14.15,0,1.66,0,1.69,1.65,1.69h14.15c2,0,1.84-.1,1.84,1.92,0,4.86,0,9.72,0,14.58,0,1.18.37,1.47,1.48,1.45,3.62-.06,7.25,0,10.88,0,1.38,0,2.76.06,4.14,0,1.09-.07,1.42.39,1.31,1.39a11.43,11.43,0,0,0,0,1.31v33.74q0,7.4,0,14.8c0,2.19-.23,1.92,2,1.93,4.36,0,8.71,0,13.06,0,2.81,0,2.62-.54,2.62,2.71q0,68.36,0,136.71a20.55,20.55,0,0,0,.22,3.23c-.94,0-1.88.07-2.82.07H198.54a4.46,4.46,0,0,1-2.73-.48c0-.94.13-1.88.13-2.82V245.46a12.83,12.83,0,0,0,0-1.52c-.14-1.2.44-1.45,1.52-1.44,4.57,0,9.14,0,13.71,0,3,0,2.56.38,2.56-2.48q0-24.37,0-48.76c0-2-.13-1.91,1.85-1.91H229.3c2.34,0,2.34,0,2.35-2.25q0-6.86,0-13.71c0-2.07-.15-2,2-2h14.15c1.52,0,1.55,0,1.56-1.56q0-7.06,0-14.14c0-2.2-.11-2,2-2H265.5c1.63,0,1.65,0,1.65-1.68,0-4.79,0-9.58,0-14.37,0-1.63,0-1.65,1.7-1.66H283c2,0,2,0,2-2,0-4.72,0-9.44,0-14.15,0-1.78,0-1.8,1.77-1.81,4.72,0,9.43,0,14.15,0,1.75,0,1.76,0,1.77-1.77,0-4.72,0-9.43,0-14.15,0-1.7,0-1.7,1.62-1.74h31.56c2.66,0,2.42.37,2.43-2.45,0-4.57,0-9.14,0-13.71,0-1.52,0-1.53,1.57-1.56h49c.51,0,1,0,1.53,0,1,.11,1.44-.22,1.38-1.31-.09-1.52,0-3,0-4.57,0-3.56,0-7.11,0-10.67,0-1,.19-1.54,1.3-1.4a9.53,9.53,0,0,0,1.31,0h30.25c.51,0,1,0,1.52,0,.76,0,1-.31,1-1C427.12,58.1,427.33,52.52,427.08,46.94ZM534.59,171.85c5.22,0,10.43.06,15.65.05,1.77,0,1.81,0,1.81-1.85q0-16,0-31.94c0-1.88,0-1.91-2-1.91q-7.71,0-15.43,0V118.29h-88.9l-16.25,0c-2,0-2,0-2,2,0,5.27,0,10.54,0,15.82q-7.92,0-15.85,0c-1.93,0-2,0-2,1.92q0,16,0,31.92c0,1.82,0,1.86,1.79,1.86,5.5,0,11,0,16.5,0l17.84,0c.51,0,1,0,1.52,0h52.24c5.73,0,11.46,0,17.19-.06Zm0,35.34H516.8l-9.06,0q-18.14,0-36.27,0H428q-8.16,0-16.32,0c-1.94,0-1.94,0-2,1.91,0,.51,0,1,0,1.53V311.43c0,3.17-.23,2.87,3,2.87h12.19c2.91,0,2.66-.11,2.66,2.76,0,4.43,0,8.86,0,13.28,0,1.7.07,1.72,1.69,1.78H531.93c.44,0,.88,0,1.31,0,1.06.06,1.42-.48,1.36-1.46,0-.58,0-1.16,0-1.74q0-7.29.07-14.59l15.22,0c2.14,0,2.17,0,2.17-2.16V209.29c0-2.08,0-2.09-2.22-2.1Z" transform="translate(-124.47 -46.94)"/><path class="cls-2" d="M836.36,509.37v.87c-.8.79-.42,1.79-.43,2.68q0,78.33,0,156.66c-5.63.25-11.26,0-16.89.11,0-1,0-2,0-3.05q0-68.46,0-136.93a6.59,6.59,0,0,0-.2-2.63,10.34,10.34,0,0,1-2.82.16c-4.42,0-8.85,0-13.28,0-1.58,0-1.63,0-1.63,1.53,0,5.3,0,10.59,0,15.89-.64.71-1.49.44-2.25.44-4.28,0-8.56,0-12.84,0-3.11,0-3.1-.3-3.1,3q0,59.51,0,119c0,.44,0,.87,0,1.31C783,670,783,670,784.55,670c5.66,0,11.31,0,17,0l17.12.11q0,7.73,0,15.45c0,2.18-.1,1.87-1.91,1.87H785.6c-2.56,0-2.56,0-2.56,2.48v49c0,1.91,0,1.92-1.89,1.93-4.71,0-9.43,0-14.15,0-1.62,0-1.64,0-1.64,1.65,0,4.79,0,9.58,0,14.37,0,1.89,0,1.91-1.87,1.91H749.11c-1.5,0-1.53,0-1.53,1.58,0,4.64,0,9.29,0,13.93,0,2.31.32,2.14-2.05,2.14-4.64,0-9.29,0-13.93,0-1.63,0-1.66,0-1.66,1.71,0,4.71,0,9.43,0,14.15,0,1.85,0,1.86-1.93,1.86H713.84c-1.9,0-1.92,0-1.92,1.86,0,4.78,0,9.57,0,14.36,0,1.53,0,1.56-1.56,1.56-4.79,0-9.58,0-14.37,0-1.71,0-1.68-.15-1.68,1.62q0,7.29,0,14.59c0,1.64,0,1.66-1.68,1.67q-7.18,0-14.37,0c-1.92,0-1.72-.09-1.72,1.79,0,4.57,0,9.14,0,13.71,0,2.37.31,2.28-2.18,2.28H660.42c-1.81,0-1.78-.2-1.77,1.74,0,4.72,0,9.43,0,14.15,0,1.83,0,1.77-1.82,1.76H642.91c-2.13,0-2-.15-2,2q0,7,0,13.93c0,2,.39,2.08-2.16,2.08H625.64c-2.79,0-2.5-.18-2.5,2.4,0,4.5,0,9,0,13.49,0,1.84.15,1.81-1.74,1.81-3.84,0-7.69,0-11.53,0-1.5,0-3.39-.65-4.39.35s-.25,2.76-.27,4.2c0,3.91-.05,7.83,0,11.75,0,1.17-.39,1.57-1.5,1.43a11.28,11.28,0,0,0-1.3,0H571.51c-1.72,0-1.69-.18-1.69,1.61,0,4.57,0,9.15,0,13.72,0,2.91.41,2.58-2.49,2.59-4.64,0-9.28,0-13.93,0-1.51,0-1.55,0-1.55,1.57,0,5.23,0,10.45-.05,15.67a1,1,0,0,0,.24.57h-.87c-.79-.79-1.79-.42-2.68-.42q-69.42,0-138.83,0c0-.72-.12-1.44-.12-2.17q0-6.53,0-13.06c0-2.33.16-2.15-2.07-2.15H393.53c-1.7,0-1.7,0-1.72-1.83,0-.72,0-1.45,0-2.17,0-4.14,0-8.28,0-12.41,0-1.49,0-1.49-1.56-1.52H357.8c-1.66,0-1.69,0-1.69-1.63,0-4.65,0-9.29,0-13.94,0-2.43.19-2.16-2.26-2.16H340.13c-1.74,0-1.75,0-1.76-1.82,0-4.5,0-9,0-13.5,0-2.72.37-2.36-2.47-2.37-4.42,0-8.85,0-13.28,0-2.65,0-2.16-.06-2.17-2.28,0-4.64,0-9.28,0-13.93,0-1.74,0-1.75-1.78-1.76H304.93c-2.42,0-2.18.14-2.18-2.27,0-4.58,0-9.15,0-13.72,0-1.63,0-1.66-1.66-1.66H286.72c-1.63,0-1.66,0-1.66-1.69,0-4.72,0-9.44,0-14.15,0-2,.19-1.93-1.84-1.93-4.79,0-9.58,0-14.36,0-1.66,0-1.68,0-1.69-1.64,0-4.86,0-9.73,0-14.59,0-1.62,0-1.64-1.68-1.65-4.79,0-9.58,0-14.37,0-1.67,0-1.68,0-1.7-1.65,0-.94,0-1.88,0-2.83,0-4,0-8,0-12,0-1.05-.31-1.38-1.36-1.36-2.75.06-5.51,0-8.27,0-2.32,0-4.64,0-7,0-.8,0-1.24-.22-1.17-1.1,0-.43,0-.87,0-1.31q0-6.53,0-13.06c0-2.54.19-2.25-2.16-2.27H215.55c-1.87,0-1.85.12-1.82-1.72v-32c0-1.85,0-1.86-1.9-1.87-4.65,0-9.29,0-13.94,0-1.93,0-1.93,0-1.95-1.86v-1.09c0-4.28,0-8.56,0-12.84,0-2.18.21-1.91-2-1.93H180c-1.62,0-1.62,0-1.65-1.7,0-.36,0-.72,0-1.09V691.36c0-.94-.05-1.89,0-2.83s-.36-1.15-1.16-1.11c-.51,0-1,0-1.52,0H144.54c-1.85,0-1.85,0-1.86-1.9q0-7.72,0-15.45L161,670l15.87.06c1.91,0,1.91,0,2-1.93v-.43q0-60.36,0-120.71a3.3,3.3,0,0,0-.17-1.85H161.05l-18.69-.06h0a3.9,3.9,0,0,0,.32-2.33q0-6.86,0-13.7c0-2-.16-1.91,1.83-1.91,4.86,0,9.72,0,14.57,0,1.09,0,1.65-.27,1.5-1.45a9.4,9.4,0,0,1,0-1.3c0-4.42,0-8.84,0-13.26,0-1.73,0-1.73,1.8-1.75h13.92c2.2,0,2.05.16,2.05-1.93,0-.29,0-.58,0-.87q0-15.23,0-30.45c0-2.38-.22-2.13,2-2.13h13.7c1.84,0,1.86,0,1.86-1.9q0-16.64,0-33.27l15.85,0c1.93,0,1.94,0,2,1.92,0,.5,0,1,0,1.52q0,15.08,0,30.17c0,2.06,0,2.09,2,2.09,5.57,0,11.14,0,16.71,0l17.42-.05c.8,0,1.6.08,2.39.08l228.57,0h231c6.1,0,12.19,0,18.28-.07h17.82c5.43,0,10.87.06,16.3.05,1.48,0,1.54-.09,1.56-1.67,0-2.24,0-4.49,0-6.74q0-12.6,0-25.22c0-2,0-2.06,2.05-2.06l15.22.05q0,34.83,0,69.64c0,.26-.09.59.35.81a2.48,2.48,0,0,0,.52.08ZM231.58,527.21l-32.13,0c-.58,0-1.16,0-1.74,0-1.16-.09-1.49.48-1.48,1.56.06,5.57.06,11.14.09,16.72,0,.5-.11,1-.11,1.51V650.21c0,2,0,2,2,2h13.28c2.31,0,2.31,0,2.31,2.41,0,4.43,0,8.85,0,13.28,0,2.09,0,2.1,2.18,2.1,4.71,0,9.43,0,14.14,0,1.71,0,1.71,0,1.76,1.66,0,.44,0,.87,0,1.31v24.6c0,2.1,0,4.21,0,6.31,0,1.75,0,1.75,1.84,1.78h30.7c.58,0,1.16,0,1.74,0s1.1.26,1.07,1c0,.5,0,1,0,1.52,0,4.5,0,9,0,13.5,0,1.52.08,1.56,1.58,1.66.58,0,1.17,0,1.75,0,4.28,0,8.56,0,12.84,0,1.65,0,1.69,0,1.7,1.72,0,4.36,0,8.71,0,13.07,0,3.16-.37,2.83,2.73,2.84,4.28,0,8.56,0,12.84,0,2.2,0,2.21,0,2.21,2.29v13.5c0,2.08,0,2.1,2.17,2.1h13.5c2,0,2,0,2.05,2.07,0,4.5,0,9,0,13.5,0,2.2,0,2.21,2.29,2.21,4.65,0,9.29,0,13.93,0,1.68,0,1.71,0,1.72,1.68,0,4.57,0,9.15,0,13.72,0,2.57-.08,2.34,2.37,2.34h32.21c.84,0,1.19-.35,1.16-1.17,0-.5,0-1,0-1.52V761.34c0-2.35,0-2.35,2.37-2.36h1.31c4.21,0,8.42,0,12.62,0,1.56,0,1.56,0,1.61-1.56,0-.44,0-.87,0-1.31V726.28c0-.58,0-1.16,0-1.74s.31-1.08,1-1.08l1.74,0H566.81c3.41,0,3-.28,3,3q0,15.22,0,30.47c0,2,0,2,2,2H584.5c3.22,0,2.89-.34,2.9,2.93q0,15.24,0,30.48c0,2.07,0,2.11,1.77,2.12h32.65c1.62,0,1.65,0,1.66-1.74,0-4.42,0-8.85,0-13.27,0-3-.33-2.73,2.62-2.74h13.06c2,0,2.05,0,2.06-2,0-4.64,0-9.29,0-13.93,0-1.81,0-1.84,1.79-1.84,4.72,0,9.43,0,14.15,0,1.77,0,1.8,0,1.81-1.84,0-4.64,0-9.29,0-13.93,0-2.11,0-2.12,2.2-2.12H674.9c2,0,2,0,2-2.07,0-4.49,0-9,0-13.49,0-2,0-2.07,2-2.07,4.5,0,9,0,13.5,0,2.09,0,2.1,0,2.1-2.19,0-4.57,0-9.14,0-13.71,0-1.78,0-1.8,1.83-1.81,4.57,0,9.14,0,13.71,0,2.36,0,2.2.1,2.2-2.28,0-4.58,0-9.15,0-13.72,0-1.88,0-1.91,1.92-1.91,4.72,0,9.44,0,14.15,0,1.8,0,1.82,0,1.83-1.8,0-4.72,0-9.44,0-14.15,0-1.76,0-1.79,1.83-1.79,4.65,0,9.29,0,13.94,0,2,0,2,0,2-2.06,0-4.65,0-9.29,0-13.94,0-1.76,0-1.78,1.84-1.79h13.28c2.93,0,2.65.26,2.65-2.72q0-34.62,0-69.23,0-17-.05-34,0-8.65.08-17.32c0-.63.18-1.3-.14-1.78H748l-15.23,0c-3,0-3,0-3,2.95q0,33.72,0,67.43c0,.65.07,1.3.11,1.94v15.58c0,.06-.07.13-.06.17a2.58,2.58,0,0,0,.18.32c0,.27.07.54.1.81l-32.82,0H695.5c-.69,0-1.09.32-1.09,1s0,1.16,0,1.74c0,9.71,0,19.42,0,29.13,0,3.79-.07,3.34-3.48,3.38-4.49.06-9-.16-13.47.13a3.73,3.73,0,0,0-.64-.11q-19.12,0-38.24.05-24.22,0-48.45,0a12.63,12.63,0,0,0-3.25,0c-.86,0-1.73-.13-2.6-.13-4.06,0-8.12,0-12.19,0-1.7,0-1.72-.06-1.78-1.69,0-.5,0-1,0-1.52q0-14.91,0-29.83a4.91,4.91,0,0,0-.17-2.27c-5.4,0-10.75,0-16.1,0-1.91,0-1.94,0-2-2,0-4.64,0-9.29,0-13.93,0-1.89,0-1.92-2-1.92-4.57,0-9.15,0-13.72,0-1.71,0-1.71-.05-1.77-1.69,0-.58,0-1.16,0-1.74q0-32.86,0-65.74c0-.77.24-1.59-.17-2.21H518.64c-1.84,0-1.87-.05-1.88-2,0-4.65,0-9.29,0-13.94a3.14,3.14,0,0,0-.2-1.87H498.92V491.9H463.66c-1.06-.41-2.1.08-3.15.06-4.13-.07-8.27,0-12.4,0-.51,0-1,0-1.53,0-.79,0-1.23.31-1.22,1.15,0,.5,0,1,0,1.52V511.8c0,4.57,0,9.14,0,13.71,0,1.66,0,1.7-1.73,1.71-3.34,0-6.68,0-10,0-1.6,0-3.19,0-4.79,0-.9,0-1.36.36-1.31,1.29,0,.36,0,.72,0,1.08q0,25.8,0,51.58l0,0s-.15.08-.15.11a2,2,0,0,0,.09.33v15.66s-.12.1-.12.13a1.77,1.77,0,0,0,.15.31l.09.44c-.65.66-1.5.41-2.27.41-4.49,0-9,0-13.47,0-2.09,0-2.11,0-2.12,2,0,5.43,0,10.86,0,16.3s0,11,0,16.53c-.63.72-1.48.46-2.24.46-4.57,0-9.14,0-13.7,0-1.9,0-1.92,0-1.93,2q0,7.93,0,15.88c-.87,0-1.74.07-2.6.07H305.36a14.63,14.63,0,0,0-3.24,0c-5.23-.22-10.45-.21-15.67,0l-.88-.06V633.92H269.65c-1.91,0-1.94,0-1.94-2,0-4.57,0-9.14,0-13.71,0-.62.21-1.3-.23-1.83H250c-.05-.87-.14-1.73-.14-2.59,0-4.92,0-9.83,0-14.75,0-.21,0-.43,0-.65q0-34.75,0-69.53a2.73,2.73,0,0,0-.19-1.67c-5.15,0-10.28,0-15.4,0C233.36,527.29,232.48,526.57,231.58,527.21ZM409.74,776.8c0,.36-.08.73-.08,1.09v27q0,11.76,0,23.51c0,1.77,0,1.8,1.81,1.81h14.37c1.91,0,1.94,0,2-1.94,0-4.72,0-9.43,0-14.15,0-1.78,0-1.81,1.84-1.82,4.42,0,8.85,0,13.27,0,3.23,0,2.78,0,2.79-2.85,0-4.43,0-8.85,0-13.28,0-1.57,0-1.59,1.54-1.63,1.31,0,2.62,0,3.92,0,3.56,0,7.11,0,10.66,0,1,0,1.57-.17,1.55-1.26.54-1.92.19-3.88.23-5.82.07-3,0-5.93,0-8.9,0-1.77,0-1.77,1.86-1.81h33c0,5.3,0,10.6,0,15.89,0,1.86,0,1.88,2,1.88h13.72c2.19,0,2.2,0,2.2,2.29,0,4.57,0,9.14,0,13.72,0,1.67,0,1.72,1.7,1.73,3.41,0,6.82,0,10.23,0,1.53,0,3.05,0,4.57,0,.92,0,1.34.36,1.28,1.29,0,.51,0,1,0,1.53,0,4.5,0,9,0,13.49,0,1,.09,1.65,1.38,1.63,5.07-.06,10.15,0,15.23,0,1.08,0,1.43-.44,1.36-1.43,0-.51,0-1,0-1.53q0-16.54,0-33.08c0-5.81-.07-11.61-.11-17.41s0-11.65,0-17.48q0-6.42.08-12.83,0-1.85,0-3.69c0-2.06,0-2.06-2-2.09H412.79c-.58,0-1.16,0-1.74,0-1-.06-1.41.38-1.4,1.41.05,5.73.07,11.45.1,17.18C409.6,765.11,409.61,771,409.74,776.8ZM303.37,616.54c.65,0,1.3.07,1.95.07l51.13,0q17,0,33.94,0c2.08,0,1.89.06,1.89-1.87V512.25c0-.8-.07-1.59-.1-2.39v-18h-86c-.65,0-1.3,0-1.95,0-.91,0-1.32.32-1.3,1.27.08,5.28-.13,10.57.11,15.85-.55.87-1.43.53-2.17.54-5.06,0-10.13,0-15.19,0q-8.13-.06-16.27-.1c-2.14,0-2.14,0-2.16,2.15v84.18c0,.5,0,1,0,1.52.05,1.63.06,1.66,1.76,1.67,4.57,0,9.14,0,13.7,0,2.41,0,2.41,0,2.42,2.32,0,4.5,0,9,0,13.49,0,1.7,0,1.75,1.68,1.75C292.35,616.58,297.86,616.55,303.37,616.54ZM570,509.85c-.28,4.06-.11,8.12-.12,12.18q0,37.34,0,74.68c0,2.47-.15,2.24,2.22,2.24,4.64,0,9.29,0,13.93,0,1.14,0,1.49.37,1.47,1.49-.05,4.5,0,9,0,13.5,0,2.94-.42,2.69,2.65,2.69q25.45,0,50.93,0,17,0,34,0c1.89,0,1.89,0,1.91-1.9,0-.44,0-.87,0-1.31L677,599l5.44,0c3.48,0,7,0,10.44,0,1.55,0,1.59-.09,1.66-1.57,0-.36,0-.72,0-1.08v-85c0-1.89,0-1.91-1.92-1.92l-15.66,0c-5.93.26-11.87.08-17.8.1,0-5.92-.1-11.84-.14-17.86a19.56,19.56,0,0,1-3.89.21H572.92c-.58,0-1.16,0-1.74,0-1.06-.08-1.37.45-1.36,1.44C569.91,498.83,569.69,504.34,570,509.85Z" transform="translate(-124.47 -46.94)"/><path class="cls-3" d="M836.36,669.61l-.45,0q0-78.33,0-156.66c0-.89-.37-1.89.43-2.68Z" transform="translate(-124.47 -46.94)"/><path class="cls-4" d="M409.66,954.38V954q69.42,0,138.83,0c.89,0,1.89-.37,2.68.42Z" transform="translate(-124.47 -46.94)"/><path class="cls-5" d="M124.94,669.55l-.47.06V545.07l.49.12v85.24c0,.72.07,1.44.11,2.16a7.21,7.21,0,0,0,0,2.62c0,.87-.11,1.74-.11,2.6Q124.95,653.68,124.94,669.55Z" transform="translate(-124.47 -46.94)"/><path class="cls-6" d="M783.25,385.17a6.12,6.12,0,0,1,.17,2.37q0,24.4,0,48.83c0,.84.3,1.74-.34,2.5l-15.22-.05c-2,0-2.05,0-2.05,2.06q0,12.62,0,25.22c0,2.25,0,4.5,0,6.74,0,1.58-.08,1.67-1.56,1.67-5.43,0-10.87,0-16.3-.05q0-16.44,0-32.88c0-2.87.21-2.75-2.68-2.75H697.4c-2.53,0-2.68-.13-2.94-2.6-.05-.5,0-1,0-1.52,0-3.41,0-6.82,0-10.23,0-3.94.45-3.48-3.48-3.48H288c-2.42,0-2.43,0-2.44,2.35,0,4.43,0,8.86,0,13.28,0,2.18,0,2.2-2.14,2.2-6.32,0-12.63,0-18.94,0h-30c-2,0-2,0-2,1.9q0,16.88,0,33.75c-5.57,0-11.14,0-16.71,0-2,0-2,0-2-2.09q0-15.09,0-30.17c0-.51,0-1,0-1.52,0-1.88,0-1.91-2-1.92l-15.85,0c-.64-.39-.39-1-.39-1.57q0-25.53,0-51.08c0-.48-.18-1,.27-1.43a4.46,4.46,0,0,0,2.73.48H780.43C781.37,385.24,782.31,385.19,783.25,385.17Z" transform="translate(-124.47 -46.94)"/><path class="cls-7" d="M445.8,207.21h25.67q18.13,0,36.27,0l9.06,0c0,5.43,0,10.86,0,16.29,0,1.93,0,1.94,1.92,2h4.13l11.71.11q0,24.64,0,49.29,0,10.76,0,21.5l-14.76.1c-.58,0-1.16,0-1.74,0-.94,0-1.3.44-1.26,1.33,0,.5,0,1,0,1.52l0,15c-.72,0-1.45.06-2.17.06H482.36l-36.57,0q0-7.95,0-15.89c0-1.93,0-2-1.93-2q-7.93,0-15.88,0c0-.8-.07-1.59-.07-2.39q0-16.07,0-32.13,0-18.23.05-36.47h15.65c2.16,0,2.18,0,2.18-2.14C445.79,217.94,445.79,212.57,445.8,207.21Zm-.1,53.29v15.23c0,2.69-.21,2.52,2.42,2.52h13.27c1.9,0,1.93,0,1.93,1.86,0,4.57,0,9.14,0,13.7,0,2.2,0,2.22,2.13,2.22q15.54,0,31.07,0c1.92,0,1.94,0,2-1.89,0-4.57,0-9.14,0-13.71,0-2.16,0-2.17,2.1-2.18h13.7c2.06,0,2.08,0,2.08-2q0-15.66,0-31.33c0-1.91,0-1.94-1.9-1.94-4.72,0-9.43,0-14.14,0-1.8,0-1.83,0-1.83-1.79,0-4.71,0-9.42,0-14.14,0-1.64,0-1.68-1.71-1.68q-15.87,0-31.76,0c-1.63,0-1.66.05-1.67,1.74,0,4.65,0,9.29,0,13.93,0,1.91,0,1.93-1.89,1.94-4.64,0-9.28,0-13.93,0-1.76,0-1.79,0-1.79,1.84C445.69,250.06,445.7,255.28,445.7,260.5Z" transform="translate(-124.47 -46.94)"/><path class="cls-7" d="M516.75,171.85c-5.73,0-11.46.06-17.19.06H447.32c-.5,0-1,0-1.52,0,0-4.76,0-9.53,0-14.29,0-3.47.42-3.48-3.35-3.46-4.83,0-9.67,0-14.5,0V136.63c5.27,0,10.55,0,15.82,0,2,0,2,0,2-2.07,0-5.42,0-10.84,0-16.26h71.09c0,5.58-.06,11.16-.05,16.75,0,1.49.1,1.53,1.66,1.56s2.9,0,4.35,0l11.74.11V154c-.79,0-1.58.12-2.37.12H519c-2.17,0-2.18,0-2.19,2.12Q516.76,164.05,516.75,171.85Z" transform="translate(-124.47 -46.94)"/><path class="cls-6" d="M445.79,314.3l36.57,0h32.21c.72,0,1.45,0,2.17-.05l17.82,0,.11.12q0,7.29-.07,14.58c0,.58,0,1.16,0,1.74.06,1-.3,1.52-1.36,1.46-.43,0-.87,0-1.31,0H429.19c-1.62-.06-1.68-.08-1.69-1.78,0-4.42,0-8.85,0-13.28,0-2.87.25-2.77-2.66-2.76H412.64c-3.21,0-3,.3-3-2.87V210.64c0-.51,0-1,0-1.53,0-1.88,0-1.91,2-1.91q8.16,0,16.32,0,0,9.12,0,18.23,0,18.24-.05,36.47,0,16.06,0,32.13c0,.8,0,1.59.07,2.39,0,5.27,0,10.54,0,15.81,0,2,0,2.06,2.05,2.06Z" transform="translate(-124.47 -46.94)"/><path class="cls-6" d="M534.53,296.34q0-10.74,0-21.5,0-24.64,0-49.29,0-9.18.07-18.36h15.22c2.19,0,2.22,0,2.22,2.1V312.14c0,2.14,0,2.16-2.17,2.16l-15.22,0-.11-.11Z" transform="translate(-124.47 -46.94)"/><path class="cls-6" d="M427.92,136.63v17.48q0,8.88,0,17.77c-5.5,0-11,0-16.5,0-1.76,0-1.79,0-1.79-1.86q0-16,0-31.92c0-1.89,0-1.92,2-1.92q7.92,0,15.85,0Z" transform="translate(-124.47 -46.94)"/><path class="cls-6" d="M534.55,154q0-8.64,0-17.27c0-.18.07-.36.11-.54q7.71,0,15.43,0c1.94,0,2,0,2,1.91q0,16,0,31.94c0,1.81,0,1.85-1.81,1.85-5.22,0-10.43,0-15.65-.05Q534.58,162.93,534.55,154Z" transform="translate(-124.47 -46.94)"/><path class="cls-8" d="M427.92,136.63l-.44-.45c0-5.28,0-10.55,0-15.82,0-2,0-2,2-2l16.25,0c0,5.42,0,10.84,0,16.26,0,2,0,2.06-2,2.07C438.47,136.63,433.19,136.62,427.92,136.63Z" transform="translate(-124.47 -46.94)"/><path class="cls-8" d="M534.62,207.19q0,9.18-.07,18.36l-11.72-.11H518.7c-1.88,0-1.92,0-1.92-2,0-5.43,0-10.86,0-16.29Z" transform="translate(-124.47 -46.94)"/><path class="cls-8" d="M427.94,225.44q0-9.1,0-18.23H445.8c0,5.36,0,10.73,0,16.09,0,2.12,0,2.13-2.18,2.14Z" transform="translate(-124.47 -46.94)"/><path class="cls-9" d="M534.65,136.18c0,.18-.07.36-.11.54l-11.74-.11c-1.45,0-2.9,0-4.35,0s-1.66-.07-1.66-1.56c0-5.59,0-11.17.05-16.75h17.81Z" transform="translate(-124.47 -46.94)"/><path class="cls-8" d="M534.55,154q0,8.92,0,17.86H516.75q0-7.8,0-15.61c0-2.1,0-2.12,2.19-2.12h13.22C533,154.11,533.76,154,534.55,154Z" transform="translate(-124.47 -46.94)"/><path class="cls-8" d="M428,171.88q0-8.88,0-17.77c4.83,0,9.67,0,14.5,0,3.77,0,3.34,0,3.35,3.46,0,4.76,0,9.53,0,14.29Z" transform="translate(-124.47 -46.94)"/><path class="cls-10" d="M765.68,546.35q0,17,.05,34,0,34.62,0,69.23c0,3,.28,2.71-2.65,2.72H749.79c-1.81,0-1.83,0-1.84,1.79,0,4.65,0,9.29,0,13.94,0,2,0,2-2,2.06-4.65,0-9.29,0-13.94,0-1.79,0-1.82,0-1.83,1.79,0,4.71,0,9.43,0,14.15,0,1.77,0,1.79-1.83,1.8-4.71,0-9.43,0-14.15,0-1.9,0-1.92,0-1.92,1.91,0,4.57,0,9.14,0,13.72,0,2.38.16,2.29-2.2,2.28-4.57,0-9.14,0-13.71,0-1.79,0-1.82,0-1.83,1.81,0,4.57,0,9.14,0,13.71,0,2.17,0,2.19-2.1,2.19-4.5,0-9,0-13.5,0-2,0-2,0-2,2.07,0,4.5,0,9,0,13.49,0,2,0,2.07-2,2.07H661.19c-2.18,0-2.19,0-2.2,2.12,0,4.64,0,9.29,0,13.93,0,1.8,0,1.83-1.81,1.84-4.72,0-9.43,0-14.15,0-1.76,0-1.79,0-1.79,1.84,0,4.64,0,9.29,0,13.93,0,2,0,2-2.06,2H626.11c-3,0-2.62-.26-2.62,2.74,0,4.42,0,8.85,0,13.27,0,1.7,0,1.74-1.66,1.74H589.17c-1.74,0-1.76,0-1.77-2.12q0-15.24,0-30.48c0-3.27.32-2.91-2.9-2.93H571.87c-2,0-2,0-2-2q0-15.24,0-30.47c0-3.32.4-3-3-3H395.06l-1.74,0c-.72,0-1.05.36-1,1.08s0,1.16,0,1.74V756.1c0,.44,0,.87,0,1.31,0,1.52,0,1.55-1.61,1.56-4.2,0-8.41,0-12.62,0h-1.31c-2.36,0-2.37,0-2.37,2.36v30.48c0,.51,0,1,0,1.52,0,.82-.32,1.22-1.16,1.17H341c-2.45,0-2.38.23-2.37-2.34,0-4.57,0-9.15,0-13.72,0-1.64,0-1.68-1.72-1.68-4.64,0-9.28,0-13.93,0-2.28,0-2.29,0-2.29-2.21,0-4.5,0-9,0-13.5,0-2,0-2.06-2.05-2.07h-13.5c-2.15,0-2.16,0-2.17-2.1v-13.5c0-2.28,0-2.29-2.21-2.29-4.28,0-8.56,0-12.84,0-3.1,0-2.72.32-2.73-2.84,0-4.36,0-8.71,0-13.07,0-1.67-.05-1.71-1.7-1.72-4.28,0-8.56,0-12.84,0-.58,0-1.17,0-1.75,0-1.5-.1-1.57-.14-1.58-1.66,0-4.5,0-9,0-13.5,0-.51,0-1,0-1.52,0-.76-.37-1-1.07-1s-1.16,0-1.74,0h-30.7c-1.81,0-1.83,0-1.84-1.78,0-2.1,0-4.21,0-6.31V673c0-.44,0-.87,0-1.31,0-1.63,0-1.66-1.76-1.66-4.71,0-9.43,0-14.14,0-2.17,0-2.18,0-2.18-2.1,0-4.43,0-8.85,0-13.28,0-2.4,0-2.41-2.31-2.41H198.23c-2,0-2,0-2-2V547c0-.5.07-1,.11-1.51l33.39,0c.86,0,1.73.07,2.59.11a21.09,21.09,0,0,1-.21,3.46q0,23.77,0,47.54c0,2.28.15,2.37,2.53,2.38l15.2.05c0,4.92,0,9.83,0,14.75,0,.86.09,1.72.14,2.59-.29,5.36-.08,10.73-.12,16.09,0,1.83,0,1.85,2,1.86,4.72,0,9.43,0,14.15,0,1.55,0,1.6,0,1.61,1.6,0,4.28,0,8.56,0,12.84,0,.72,0,1.45,0,2.18,0,.93.43,1.31,1.33,1.27.57,0,1.16,0,1.74,0l14.79.07c0,.51,0,1,0,1.52,0,4.78,0,9.57,0,14.35,0,1.79.05,1.8,1.84,1.84H389.8c2.46,0,2.46,0,2.47-2.52V652.32c5.3,0,10.59,0,15.88-.06,1.9,0,1.92,0,1.93-2q0-7.62,0-15.23c0-.56.14-1.17-.37-1.63q0-8.26,0-16.53l15.84-.08c2.32,0,2.35,0,2.36-2.26q0-7.27,0-14.54c0-.63.2-1.32-.37-1.84l-.09-.44,0-.44V581.66l.06-.44,0,0,13.49,0h3.7a.93.93,0,0,0,1.07-1.06c0-.5,0-1,0-1.52V560.29q0-15.33,0-30.68c0-1.91,0-1.93,1.93-1.94h13.71c2.14,0,2.14,0,2.16-2.16,0-.36,0-.72,0-1.09q.06-7.27.1-14.57h20.61c4.84,0,9.68.05,14.53.07q0,7.72.08,15.44c0,2.3,0,2.31,2.23,2.31h13.71c1.9,0,1.92,0,1.93,1.94q0,8.16,0,16.32,0,25.46,0,50.92c0,2.16,0,2.18,2.14,2.18,4.57,0,9.14,0,13.71,0,1.92,0,1.94,0,2,1.92,0,4.64,0,9.28,0,13.92,0,1.56,0,1.55,1.53,1.72,4.41.49,8.84.15,13.25.23,2.89,0,2.73-.19,2.74,2.7q0,15.12,0,30.24c0,2.35.18,2.49,2.45,2.5l15.66,0q0,7.4.08,14.79c0,3.23-.22,3,2.9,3H691.5c3.66,0,3.27.4,3.31-3.21.06-4.85-.15-9.71.12-14.56,5.14,0,10.27,0,15.41,0,1.92,0,1.95,0,2-1.92,0-4.41,0-8.82,0-13.24,0-2.9-.26-2.73,2.66-2.73h13c2.18,0,2.19,0,2.21-2.11,0-1.45,0-2.89,0-4.34-.06-3.83.17-7.67-.13-11.49,0-.27-.07-.54-.1-.81,0-.06,0-.13,0-.18a1.82,1.82,0,0,0-.16-.31V599.55c.62-.73,1.46-.51,2.23-.51,4.72,0,9.43,0,14.14,0,1.71,0,1.72,0,1.77-1.66,0-.51,0-1,0-1.52q0-15.12,0-30.23c0-6.67,0-13.34.07-20q7.89,0,15.79-.08A1.8,1.8,0,0,1,765.68,546.35ZM481.07,705.75h33.52c2.16,0,2.17,0,2.18-2.15q0-6.44,0-12.85c0-3.19.21-2.87-3-2.87H465.91c-2.28,0-2.29,0-2.3-2.26,0-4.29,0-8.57,0-12.85,0-2.69,0-2.7-2.63-2.7-4.42,0-8.85,0-13.27,0-1.89,0-1.92,0-1.92-2q0-7,0-13.93c0-1.89,0-1.91,2-1.92,4.42,0,8.85,0,13.27,0,2.57,0,2.58,0,2.58-2.64v-30c0-2.66,0-2.66,2.56-2.66h12.19c2.92,0,2.72.12,2.72-2.72v-48.1c0-.43,0-.87,0-1.3.07-1-.39-1.43-1.4-1.42-2.4,0-4.79,0-7.19,0s-5.07,0-7.61,0c-1,0-1.71.23-1.62,1.43,0,.44,0,.87,0,1.31v30.19c0,2.87.23,2.78-2.66,2.78-4.28,0-8.56,0-12.84,0-1.94,0-1.94,0-2,1.92,0,.43,0,.87,0,1.31q0,14.9,0,29.81c0,2.25,0,2.26-2.29,2.26-4.57,0-9.14,0-13.71,0-1.8,0-1.84,0-1.85,1.83,0,3.48,0,7,0,10.44q0,19.59,0,39.18c0,2,0,2.05,2.06,2.06,4,0,8,0,12,0,4.41,0,3.79-.62,3.82,3.77,0,4.07,0,8.13,0,12.19,0,1.85,0,1.86,1.78,1.91h33.51Z" transform="translate(-124.47 -46.94)"/><path class="cls-10" d="M730.11,474.45c-6.09,0-12.18.07-18.28.07h-231l-228.57,0c-.79,0-1.59-.05-2.39-.08,0-4.86,0-9.72,0-14.58,0-3.51-.37-3.19,3.1-3.19H301.1c2.28,0,2.3,0,2.3-2.25,0-4.06,0-8.13,0-12.19,0-3.8-.45-3.39,3.34-3.39H674.82c2.13,0,2.15,0,2.15,2.18,0,4.21,0,8.42,0,12.63,0,3.34-.29,3,3.06,3h47.88c2.2,0,2.22,0,2.23,2.12Q730.15,466.61,730.11,474.45Z" transform="translate(-124.47 -46.94)"/><path class="cls-11" d="M677,599l-.09,14.36c0,.44,0,.87,0,1.31,0,1.88,0,1.9-1.91,1.9q-17,0-34,0-25.47,0-50.93,0c-3.07,0-2.64.25-2.65-2.69,0-4.5,0-9,0-13.5,0-1.12-.33-1.5-1.47-1.49-4.64.06-9.29,0-13.93,0-2.37,0-2.22.23-2.22-2.24q0-37.34,0-74.68c0-4.06-.16-8.12.12-12.18.14,0,.28,0,.43,0h86.88c.63,0,1.32.17,1.87-.34,5.93,0,11.87.16,17.8-.1q0,9.46,0,18.92Q677,563.7,677,599Z" transform="translate(-124.47 -46.94)"/><path class="cls-11" d="M392.18,509.86c0,.8.1,1.59.1,2.39V614.74c0,1.93.19,1.87-1.89,1.87q-17,0-33.94,0l-51.13,0c-.65,0-1.3-.05-1.95-.07q0-16.62,0-33.25c0-2.13,0-2.14-2.17-2.15h-12.6c-3.25,0-3,.13-3-3.11q0-33,0-66.07c0-.79.08-1.59.12-2.38,5.06,0,10.13,0,15.19,0,.74,0,1.62.33,2.17-.54.48,1,1.36.88,2.24.88h16.51Z" transform="translate(-124.47 -46.94)"/><path class="cls-8" d="M730.11,474.45q0-7.83,0-15.67c0-2.1,0-2.12-2.23-2.12H680c-3.35,0-3,.32-3.06-3,0-4.21,0-8.42,0-12.63,0-2.16,0-2.18-2.15-2.18H306.75c-3.79,0-3.32-.41-3.34,3.39,0,4.06,0,8.13,0,12.19,0,2.23,0,2.25-2.3,2.25H253c-3.47,0-3.1-.32-3.1,3.19,0,4.86,0,9.72,0,14.58l-17.42.05q0-16.87,0-33.75c0-1.86,0-1.89,2-1.9h30c6.31,0,12.62,0,18.94,0,2.12,0,2.13,0,2.14-2.2,0-4.42,0-8.85,0-13.28,0-2.34,0-2.35,2.44-2.35H691c3.93,0,3.46-.46,3.48,3.48,0,3.41,0,6.82,0,10.23,0,.51,0,1,0,1.52.26,2.47.41,2.6,2.94,2.6h47.89c2.89,0,2.68-.12,2.68,2.75q0,16.44,0,32.88Z" transform="translate(-124.47 -46.94)"/><path class="cls-9" d="M409.75,759.26c0-5.73-.05-11.45-.1-17.18,0-1,.38-1.47,1.4-1.41.58,0,1.16,0,1.74,0H550.11c1.95,0,2,0,2,2.09q0,1.85,0,3.69,0,6.42-.08,12.83H411.05Z" transform="translate(-124.47 -46.94)"/><path class="cls-6" d="M570.21,652.3l-15.66,0c-2.27,0-2.44-.15-2.45-2.5q0-15.12,0-30.24c0-2.89.15-2.65-2.74-2.7-4.41-.08-8.84.26-13.25-.23-1.48-.17-1.52-.16-1.53-1.72,0-4.64,0-9.28,0-13.92,0-1.89,0-1.92-2-1.92-4.57,0-9.14,0-13.71,0-2.12,0-2.14,0-2.14-2.18q0-25.46,0-50.92,0-8.16,0-16.32c0-1.91,0-1.93-1.93-1.94H501.12c-2.21,0-2.22,0-2.23-2.31q0-7.71-.08-15.44c0-.18.07-.36.11-.53h17.63a3.14,3.14,0,0,1,.2,1.87c0,4.65,0,9.29,0,13.94,0,2,0,2,1.88,2h15.77c.41.62.17,1.44.17,2.21q0,32.87,0,65.74c0,.58,0,1.16,0,1.74.06,1.64.06,1.68,1.77,1.69,4.57,0,9.15,0,13.72,0,1.93,0,2,0,2,1.92,0,4.64,0,9.29,0,13.93,0,1.93,0,2,2,2,5.35,0,10.7,0,16.1,0a4.91,4.91,0,0,1,.17,2.27q0,14.92,0,29.83c0,.51,0,1,0,1.52.06,1.63.08,1.68,1.78,1.69,4.07,0,8.13,0,12.19,0,.87,0,1.74.08,2.6.13a3.93,3.93,0,0,1-2.32.28C579.76,652.24,575,652.26,570.21,652.3Z" transform="translate(-124.47 -46.94)"/><path class="cls-10" d="M819,669.69c0,.26-.12.41-.39.41l-17.12-.1c0-1,0-2,0-3q0-59.79,0-119.58c0-.9.35-1.89-.4-2.7,0-5.3-.05-10.59,0-15.89,0-1.49.05-1.53,1.63-1.53,4.43,0,8.86,0,13.28,0a10.34,10.34,0,0,0,2.82-.16,6.59,6.59,0,0,1,.2,2.63q0,68.46,0,136.93C819,667.66,819,668.67,819,669.69Z" transform="translate(-124.47 -46.94)"/><path class="cls-6" d="M409.75,759.26l1.3,0H552q0,8.75,0,17.48l-53.48,0h-33c-1.82,0-1.85,0-1.86,1.81,0,3,0,5.94,0,8.9,0,1.94.31,3.9-.23,5.82a7.56,7.56,0,0,1-.15-2.37c0-4.06,0-8.13,0-12.19,0-1.9,0-1.93-1.93-1.93l-51.56,0C409.61,771,409.6,765.11,409.75,759.26Z" transform="translate(-124.47 -46.94)"/><path class="cls-9" d="M801.08,544.68c.75.81.4,1.8.4,2.7q0,59.79,0,119.58c0,1,0,2,0,3-5.65,0-11.3,0-17,0-1.58,0-1.59,0-1.65-1.56,0-.44,0-.87,0-1.31q0-59.49,0-119c0-3.35,0-3,3.1-3,4.28,0,8.56,0,12.84,0C799.59,545.12,800.44,545.39,801.08,544.68Z" transform="translate(-124.47 -46.94)"/><path class="cls-12" d="M142.64,670.07c-.25.07-.35,0-.32-.28a.17.17,0,0,1,0-.27c.29.07.39-.06.35-.34,0-.79.09-1.58.09-2.37q0-13.2,0-26.41c0-1.73-.06-3.46-.09-5.19a8.16,8.16,0,0,0,0-2.61q.24-7.85,0-15.68v-1.31c0-.79.09-1.58.09-2.37q0-13.74,0-27.49c0-1.51-.06-3-.09-4.53v-1.31a4.81,4.81,0,0,0,.08-.65q0-16.41,0-32.83c0-.48.15-1-.42-1.36l18.69.06q0,26.21,0,52.42,0,36.23,0,72.44Z" transform="translate(-124.47 -46.94)"/><path class="cls-13" d="M285.7,509.58c0,.79-.12,1.59-.12,2.38q0,33,0,66.07c0,3.24-.21,3.12,3,3.11h12.6c2.15,0,2.17,0,2.17,2.15q0,16.62,0,33.25c-5.51,0-11,0-16.53,0-1.64,0-1.68-.05-1.68-1.75,0-4.49,0-9,0-13.49,0-2.31,0-2.32-2.42-2.32-4.56,0-9.13,0-13.7,0-1.7,0-1.71,0-1.76-1.67,0-.51,0-1,0-1.52V511.63c0-2.14,0-2.16,2.16-2.15Q277.56,509.51,285.7,509.58Z" transform="translate(-124.47 -46.94)"/><path class="cls-9" d="M570.21,652.3c4.78,0,9.55-.06,14.33-.11a3.93,3.93,0,0,0,2.32-.28,12.63,12.63,0,0,1,3.25,0q24.23,0,48.45,0,19.13,0,38.24-.05a3.73,3.73,0,0,1,.64.11,3.86,3.86,0,0,0,2.32.29c5,0,10.11.06,15.17.09-.27,4.85-.06,9.71-.12,14.56,0,3.61.35,3.21-3.31,3.21H573.19c-3.12,0-2.88.27-2.9-3Q570.26,659.7,570.21,652.3Z" transform="translate(-124.47 -46.94)"/><path class="cls-9" d="M161,670q0-36.22,0-72.44,0-26.2,0-52.42h17.63a3.3,3.3,0,0,1,.17,1.85q0,60.36,0,120.71v.43c0,1.9,0,1.93-2,1.93Z" transform="translate(-124.47 -46.94)"/><path class="cls-9" d="M392.27,652.32v15.21c0,2.52,0,2.52-2.47,2.52H287.42c-1.79,0-1.83,0-1.84-1.84,0-4.78,0-9.57,0-14.35,0-.51,0-1,0-1.52l0-.5.87,0a1.82,1.82,0,0,0,1.24.3h13.2a1.87,1.87,0,0,0,1.24-.29,14.63,14.63,0,0,1,3.24,0h83.87c.86,0,1.73-.05,2.6-.07C392,652,392.13,652.13,392.27,652.32Z" transform="translate(-124.47 -46.94)"/><path class="cls-12" d="M409.74,776.8l51.56,0c1.9,0,1.92,0,1.93,1.93,0,4.06,0,8.13,0,12.19a7.56,7.56,0,0,0,.15,2.37c0,1.09-.6,1.27-1.55,1.26-3.55,0-7.1,0-10.66,0-1.3,0-2.61,0-3.92,0-1.5,0-1.54.06-1.54,1.63,0,4.43,0,8.85,0,13.28,0,2.87.44,2.85-2.79,2.85-4.42,0-8.85,0-13.27,0-1.8,0-1.83,0-1.84,1.82,0,4.72,0,9.43,0,14.15,0,1.91,0,1.93-2,1.94H411.47c-1.78,0-1.8,0-1.81-1.81q0-11.76,0-23.51v-27C409.66,777.53,409.71,777.16,409.74,776.8Z" transform="translate(-124.47 -46.94)"/><path class="cls-12" d="M498.53,776.74l53.48,0c0,5.8.11,11.6.11,17.41q0,16.55,0,33.08c0,.51,0,1,0,1.53.07,1-.28,1.43-1.36,1.43-5.08,0-10.16-.06-15.23,0-1.29,0-1.39-.63-1.38-1.63,0-4.5,0-9,0-13.49,0-.51,0-1,0-1.53.06-.93-.36-1.31-1.28-1.29-1.52,0-3,0-4.57,0-3.41,0-6.82,0-10.23,0-1.65,0-1.69-.06-1.7-1.73,0-4.58,0-9.15,0-13.72,0-2.28,0-2.29-2.2-2.29H500.44c-1.93,0-2,0-2-1.88C498.49,787.34,498.52,782,498.53,776.74Z" transform="translate(-124.47 -46.94)"/><path class="cls-6" d="M463.67,509.84q0,7.29-.1,14.57c0,.37,0,.73,0,1.09,0,2.14,0,2.16-2.16,2.16H447.7c-1.9,0-1.93,0-1.93,1.94q0,15.35,0,30.68v18.28c0,.51,0,1,0,1.52a.93.93,0,0,1-1.07,1.06H441l-13.49,0q0-25.78,0-51.58c0-.36,0-.72,0-1.08-.05-.93.41-1.3,1.31-1.29,1.6,0,3.19,0,4.79,0,3.33,0,6.67,0,10,0,1.68,0,1.73-.05,1.73-1.71,0-4.57,0-9.14,0-13.71V494.61c0-.51,0-1,0-1.52,0-.84.43-1.17,1.22-1.15.51,0,1,0,1.53,0,4.13,0,8.27,0,12.4,0,1.05,0,2.09-.47,3.15-.06Q463.66,500.87,463.67,509.84Z" transform="translate(-124.47 -46.94)"/><path class="cls-13" d="M392.18,509.86l-70.37,0H305.3c-.88,0-1.76.09-2.24-.88-.24-5.28,0-10.57-.11-15.85,0-1,.39-1.31,1.3-1.27.65,0,1.3,0,1.95,0h86Z" transform="translate(-124.47 -46.94)"/><path class="cls-13" d="M659.13,509.54c-.55.51-1.24.34-1.87.34H570.38c-.15,0-.29,0-.43,0-.26-5.51,0-11-.13-16.52,0-1,.3-1.52,1.36-1.44.58,0,1.16,0,1.74,0H655.1a19.56,19.56,0,0,0,3.89-.21C659,497.7,659.08,503.62,659.13,509.54Z" transform="translate(-124.47 -46.94)"/><path class="cls-13" d="M677,599q0-35.34,0-70.68,0-9.45,0-18.92l15.66,0c1.89,0,1.91,0,1.92,1.92v85c0,.36,0,.72,0,1.08-.07,1.48-.11,1.55-1.66,1.57-3.48,0-7,0-10.44,0Z" transform="translate(-124.47 -46.94)"/><path class="cls-1" d="M142.69,581.22c0,1.51.09,3,.09,4.53q0,13.75,0,27.49c0,.79-.06,1.58-.09,2.37h-.64c-.44,0-.92.09-.92.65s.48.62.92.64h.64q.24,7.85,0,15.68H125.07c0-.72-.11-1.44-.11-2.16V545.19c4.71-.26,9.42-.05,14.13-.11,1.09,0,2.18,0,3.26,0h0c.57.32.42.88.42,1.36q0,16.41,0,32.83a4.81,4.81,0,0,1-.08.65h-.64c-.44,0-.92.08-.92.64s.48.62.92.65Z" transform="translate(-124.47 -46.94)"/><path class="cls-6" d="M748.05,545.6c0,6.67-.06,13.34-.07,20q0,15.1,0,30.23c0,.5,0,1,0,1.52-.05,1.62-.06,1.66-1.77,1.66-4.71,0-9.42,0-14.14,0-.77,0-1.61-.22-2.23.51,0-.64-.11-1.29-.11-1.94q0-33.72,0-67.43c0-2.94,0-2.95,3-2.95l15.23,0Z" transform="translate(-124.47 -46.94)"/><path class="cls-6" d="M249.84,599.08l-15.2-.05c-2.38,0-2.53-.1-2.53-2.38q0-23.77,0-47.54a21.09,21.09,0,0,0,.21-3.46c.38-1.45-.34-2.82-.3-4.28.11-4,.05-8,0-11.92,0-.76.26-1.61-.45-2.24.9-.64,1.78.08,2.69.06,5.12-.08,10.25,0,15.4,0a2.73,2.73,0,0,1,.19,1.67q0,34.77,0,69.53C249.87,598.65,249.85,598.87,249.84,599.08Z" transform="translate(-124.47 -46.94)"/><path class="cls-6" d="M694.93,652.28c-5.06,0-10.12,0-15.17-.09a3.86,3.86,0,0,1-2.32-.29c4.48-.29,9-.07,13.47-.13,3.41,0,3.49.41,3.48-3.38,0-9.71,0-19.42,0-29.13,0-.58,0-1.16,0-1.74s.4-1,1.09-1h1.74l32.82,0c.3,3.82.07,7.66.13,11.49,0,1.45,0,2.89,0,4.34,0,2.09,0,2.1-2.21,2.11H715c-2.92,0-2.65-.17-2.66,2.73,0,4.42,0,8.83,0,13.24,0,1.89,0,1.92-2,1.92C705.2,652.28,700.07,652.27,694.93,652.28Z" transform="translate(-124.47 -46.94)"/><path class="cls-9" d="M231.58,527.21c.71.63.44,1.48.45,2.24,0,4,.08,7.95,0,11.92,0,1.46.68,2.83.3,4.28-.86,0-1.73-.11-2.59-.11l-33.39,0c0-5.58,0-11.15-.09-16.72,0-1.08.32-1.65,1.48-1.56.58,0,1.16,0,1.74,0Z" transform="translate(-124.47 -46.94)"/><path class="cls-6" d="M285.57,651.84l0,.5-14.79-.07c-.58,0-1.17,0-1.74,0-.9,0-1.36-.34-1.33-1.27,0-.73,0-1.46,0-2.18,0-4.28,0-8.56,0-12.84,0-1.55-.06-1.59-1.61-1.6-4.72,0-9.43,0-14.15,0-2,0-2,0-2-1.86,0-5.36-.17-10.73.12-16.09h17.44c.44.53.23,1.21.23,1.83,0,4.57,0,9.14,0,13.71,0,1.92,0,1.95,1.94,2h15.92Z" transform="translate(-124.47 -46.94)"/><path class="cls-8" d="M463.67,509.84q0-9,0-17.94h35.26v17.48c0,.17-.07.35-.11.53-4.85,0-9.69-.06-14.53-.07Z" transform="translate(-124.47 -46.94)"/><path class="cls-6" d="M427.52,598.2c.57.52.36,1.21.37,1.84q0,7.28,0,14.54c0,2.22,0,2.24-2.36,2.26l-15.84.08c0-5.44,0-10.87,0-16.3,0-2,0-2,2.12-2,4.49,0,9,0,13.47,0C426,598.61,426.87,598.86,427.52,598.2Z" transform="translate(-124.47 -46.94)"/><path class="cls-6" d="M392.27,652.32c-.14-.19-.29-.37-.44-.55q0-7.95,0-15.88c0-1.93,0-1.95,1.93-2,4.56,0,9.13,0,13.7,0,.76,0,1.61.26,2.24-.46.51.46.37,1.07.37,1.63q0,7.62,0,15.23c0,1.92,0,1.94-1.93,2C402.86,652.29,397.57,652.3,392.27,652.32Z" transform="translate(-124.47 -46.94)"/><path class="cls-14" d="M748.05,545.6,748,527.25h17.63c.32.48.14,1.15.14,1.78q0,8.65-.08,17.32a1.8,1.8,0,0,0-1.84-.83Q756,545.58,748.05,545.6Z" transform="translate(-124.47 -46.94)"/><path class="cls-6" d="M302.12,651.9a1.87,1.87,0,0,1-1.24.29h-13.2a1.82,1.82,0,0,1-1.24-.3C291.67,651.69,296.89,651.68,302.12,651.9Z" transform="translate(-124.47 -46.94)"/><path class="cls-6" d="M729.84,615.13a1.82,1.82,0,0,1,.16.31s0,.12,0,.18a2.58,2.58,0,0,1-.18-.32S729.82,615.19,729.84,615.13Z" transform="translate(-124.47 -46.94)"/><path class="cls-3" d="M427.4,597.32l0,.44a1.77,1.77,0,0,1-.15-.31S427.36,597.36,427.4,597.32Z" transform="translate(-124.47 -46.94)"/><path class="cls-3" d="M427.46,581.22l-.06.44a2,2,0,0,1-.09-.33S427.41,581.26,427.46,581.22Z" transform="translate(-124.47 -46.94)"/><path class="cls-1" d="M142.69,635.21c0,1.73.09,3.46.09,5.19q0,13.2,0,26.41c0,.79-.06,1.58-.09,2.37l-.35.34a.17.17,0,0,0,0,.27c-4.93,0-9.86-.06-14.79-.11a9,9,0,0,1-2.59-.13q0-15.87,0-31.74c0-.86.07-1.73.11-2.6Z" transform="translate(-124.47 -46.94)"/><path class="cls-2" d="M142.69,635.21H125.07a7.21,7.21,0,0,1,0-2.62h17.62A8.16,8.16,0,0,1,142.69,635.21Z" transform="translate(-124.47 -46.94)"/><path class="cls-2" d="M445.7,260.5c0-5.22,0-10.44,0-15.66,0-1.8,0-1.83,1.79-1.84,4.65,0,9.29,0,13.93,0,1.87,0,1.89,0,1.89-1.94,0-4.64,0-9.28,0-13.93,0-1.69,0-1.74,1.67-1.74q15.88,0,31.76,0c1.67,0,1.71,0,1.71,1.68,0,4.72,0,9.43,0,14.14,0,1.76,0,1.78,1.83,1.79,4.71,0,9.42,0,14.14,0,1.88,0,1.9,0,1.9,1.94q0,15.68,0,31.33c0,2,0,2-2.08,2h-13.7c-2.09,0-2.09,0-2.1,2.18,0,4.57,0,9.14,0,13.71,0,1.86,0,1.89-2,1.89q-15.52,0-31.07,0c-2.11,0-2.13,0-2.13-2.22,0-4.56,0-9.13,0-13.7,0-1.84,0-1.85-1.93-1.86H448.12c-2.63,0-2.41.17-2.42-2.52Z" transform="translate(-124.47 -46.94)"/><path class="cls-8" d="M534.53,296.34l0,17.89-17.82,0,0-15c0-.51,0-1,0-1.52,0-.89.32-1.37,1.26-1.33.58,0,1.16,0,1.74,0Z" transform="translate(-124.47 -46.94)"/><path class="cls-8" d="M445.79,314.3H430c-2,0-2.05,0-2.05-2.06,0-5.27,0-10.54,0-15.81q7.94,0,15.88,0c1.9,0,1.92,0,1.93,2Q445.8,306.34,445.79,314.3Z" transform="translate(-124.47 -46.94)"/><path class="cls-8" d="M481.07,705.75H447.56c-1.74,0-1.77-.06-1.78-1.91,0-4.06,0-8.12,0-12.19,0-4.39.59-3.73-3.82-3.77-4,0-8,0-12,0-2,0-2.06,0-2.06-2.06q0-19.59,0-39.18c0-3.48,0-7,0-10.44,0-1.78.05-1.82,1.85-1.83,4.57,0,9.14,0,13.71,0,2.28,0,2.29,0,2.29-2.26q0-14.91,0-29.81c0-.44,0-.88,0-1.31,0-1.89,0-1.91,2-1.92,4.28,0,8.56,0,12.84,0,2.89,0,2.66.09,2.66-2.78V566.08c0-.44,0-.87,0-1.31-.09-1.2.58-1.45,1.62-1.43,2.54,0,5.07,0,7.61,0s4.79,0,7.19,0c1,0,1.47.4,1.4,1.42,0,.43,0,.87,0,1.3v48.1c0,2.84.2,2.72-2.72,2.72H466.17c-2.56,0-2.56,0-2.56,2.66v30c0,2.64,0,2.64-2.58,2.64-4.42,0-8.85,0-13.27,0-1.94,0-2,0-2,1.92q0,7,0,13.93c0,1.94,0,2,1.92,2,4.42,0,8.85,0,13.27,0,2.61,0,2.62,0,2.63,2.7,0,4.28,0,8.56,0,12.85,0,2.25,0,2.26,2.3,2.26h47.88c3.19,0,3-.32,3,2.87q0,6.42,0,12.85c0,2.13,0,2.14-2.18,2.15Z" transform="translate(-124.47 -46.94)"/><path class="cls-2" d="M142.69,616.92h-.64c-.44,0-.92-.08-.92-.64s.48-.62.92-.65h.64Z" transform="translate(-124.47 -46.94)"/><path class="cls-2" d="M142.69,581.22h-.64c-.44,0-.92-.09-.92-.65s.48-.62.92-.64h.64Z" transform="translate(-124.47 -46.94)"/><path class="cls-2" d="M142.34,669.52l.35-.34C142.73,669.46,142.63,669.59,142.34,669.52Z" transform="translate(-124.47 -46.94)"/></svg>